<?xml version="1.0" encoding="utf-8"?>
<!-- Generator: Adobe Illustrator 24.0.2, SVG Export Plug-In . SVG Version: 6.00 Build 0)  -->
<svg version="1.1" id="Capa_1" xmlns="http://www.w3.org/2000/svg" xmlns:xlink="http://www.w3.org/1999/xlink" x="0px" y="0px"
	 viewBox="0 0 2500 1406" style="enable-background:new 0 0 2500 1406;" xml:space="preserve">
<style type="text/css">
	.st0{fill:#6460A8;}
	.st1{fill:#75C8DB;}
	.st2{fill:#1C1E3F;}
	.st3{fill:#FFFFFF;}
	.st4{filter:url(#Adobe_OpacityMaskFilter);}
	.st5{clip-path:url(#SVGID_2_);}
	.st6{filter:url(#Adobe_OpacityMaskFilter_1_);}
</style>
<rect x="313.1" y="1162.7" class="st0" width="150" height="150"/>
<rect x="613.5" y="1312.8" class="st1" width="150" height="150"/>
<rect x="163.1" y="1312.9" class="st2" width="150" height="150"/>
<rect x="149.6" y="956.4" class="st2" width="150" height="150.4"/>
<rect x="149.6" y="1106.4" class="st2" width="150" height="150"/>
<rect x="299.6" y="806.4" class="st3" width="150" height="150"/>
<rect x="299.6" y="956.5" class="st3" width="150" height="150"/>
<rect x="299.6" y="1106.5" class="st2" width="150" height="150"/>
<rect x="449.6" y="1256.3" class="st2" width="150" height="150"/>
<rect x="449.6" y="1106.4" class="st0" width="150" height="150"/>
<rect x="4823.6" y="-33.9" class="st0" width="393.6" height="1521.7"/>
<g id="chica_x5F_pelirroja.psd_1_">
	<defs>
		<filter id="Adobe_OpacityMaskFilter" filterUnits="userSpaceOnUse" x="-235.9" y="469.8" width="1696.2" height="1130.8">
			<feColorMatrix  type="matrix" values="1 0 0 0 0  0 1 0 0 0  0 0 1 0 0  0 0 0 1 0"/>
		</filter>
	</defs>
	<mask maskUnits="userSpaceOnUse" x="-235.9" y="469.8" width="1696.2" height="1130.8" id="Fondo_copia_2_1_">
		<g id="Fondo_copia_2M치scara_de_opacidad_7_" class="st4">
			
				<image style="overflow:visible;" width="5184" height="3456" id="Fondo_copia_2M치scara_de_opacidad_8_" xlink:href="50F5835A156C832F.jpg"  transform="matrix(0.3272 0 0 0.3272 -235.9433 469.7615)">
			</image>
		</g>
	</mask>
	<g transform="matrix(1 0 0 1 1.525879e-05 0)" style="mask:url(#Fondo_copia_2_1_);">
		
			<image style="overflow:visible;" width="5184" height="3456" id="Fondo_copia_2_2_" xlink:href="50F5835A156C832D.png"  transform="matrix(0.3272 0 0 0.3272 -235.9433 469.7615)">
		</image>
	</g>
</g>
<rect x="299.6" y="656.4" class="st0" width="150" height="150"/>
<rect x="599.6" y="806.4" class="st3" width="150" height="150"/>
<rect x="749.6" y="656.4" class="st3" width="150" height="150"/>
<rect x="749.7" y="1106.4" class="st3" width="150" height="150"/>
<rect x="299.6" y="1256.4" class="st3" width="150" height="150"/>
<rect x="150.2" y="1256.4" class="st3" width="150" height="150"/>
<rect x="-0.4" y="1256.4" class="st0" width="150" height="150"/>
<rect x="449.7" y="506.4" class="st1" width="150" height="150"/>
<g>
	<defs>
		<rect id="SVGID_1_" x="149.5" y="506.7" width="150" height="150"/>
	</defs>
	<clipPath id="SVGID_2_">
		<use xlink:href="#SVGID_1_"  style="overflow:visible;"/>
	</clipPath>
	<g id="chica_x5F_pelirroja.psd_3_" class="st5">
		<defs>
			<filter id="Adobe_OpacityMaskFilter_1_" filterUnits="userSpaceOnUse" x="-686.1" y="170.1" width="1696.2" height="1130.8">
				<feColorMatrix  type="matrix" values="1 0 0 0 0  0 1 0 0 0  0 0 1 0 0  0 0 0 1 0"/>
			</filter>
		</defs>
		<mask maskUnits="userSpaceOnUse" x="-686.1" y="170.1" width="1696.2" height="1130.8" id="Fondo_copia_2_4_">
			<g id="Fondo_copia_2M치scara_de_opacidad_1_" class="st6">
				
					<image style="overflow:visible;" width="5184" height="3456" id="Fondo_copia_2M치scara_de_opacidad_4_" xlink:href="50F5835A156C8333.jpg"  transform="matrix(0.3272 0 0 0.3272 -686.054 170.0859)">
				</image>
			</g>
		</mask>
		<g style="mask:url(#Fondo_copia_2_4_);">
			
				<image style="overflow:visible;" width="5184" height="3456" id="Fondo_copia_2_3_" xlink:href="50F5835A156C8335.png"  transform="matrix(0.3272 0 0 0.3272 -686.054 170.0859)">
			</image>
		</g>
	</g>
</g>
<rect x="-0.4" y="1106.4" class="st2" width="150.6" height="150"/>
</svg>
