<?xml version="1.0" encoding="utf-8"?>
<!-- Generator: Adobe Illustrator 24.0.2, SVG Export Plug-In . SVG Version: 6.00 Build 0)  -->
<svg version="1.1" id="Capa_1" xmlns="http://www.w3.org/2000/svg" xmlns:xlink="http://www.w3.org/1999/xlink" x="0px" y="0px"
	 viewBox="0 0 551.9 519.4" style="enable-background:new 0 0 551.9 519.4;" xml:space="preserve">
<style type="text/css">
	.st0{fill:#74C7DA;}
	.st1{fill:#1C1E3F;}
</style>
<rect x="619.9" y="153.7" class="st0" width="234.4" height="234.4"/>
<path class="st1" d="M344.7,380.5c27.6-0.6,51.7,17.8,58.3,43.7c7.9,30.9-8.8,61.1-39.1,71c-29.7,9.7-63.5-7.9-72.7-37.8
	c-7.8-25.5,0.5-50.9,21.9-66.4c1.4-1,1.6-1.9,1-3.5c-6.9-17.1-13.7-34.3-20.4-51.4c-0.6-1.5-1.2-2-2.9-1.6c-25.3,4.9-48-0.8-68-17
	c-1.6-1.3-2.6-1.6-4.4-0.2c-14.2,12-28.4,23.9-42.7,35.7c-2,1.7-2.6,3-1.6,5.6c8.6,24.5-4,51.1-28.2,60c-25.1,9.2-53.4-4.9-61-30.6
	c-7.5-25.3,5.8-51.1,30.9-59.1c14-4.5,27.3-2.4,39.6,5.6c2,1.3,3.1,1.2,4.9-0.3c14.2-11.8,28.4-23.6,42.7-35.3
	c1.8-1.5,2.1-2.4,0.9-4.6c-12-22.4-13.5-45.6-4.6-69.4c0.9-2.4,0.6-3.5-1.6-4.9c-13.5-8.6-26.9-17.3-40.2-26.1
	c-1.8-1.2-2.8-1.1-4.4,0.4c-29.3,28.3-78.9,17.6-94.1-20.2c-12.9-32.2,3.4-67.4,36.3-78.5c29.6-9.9,63.3,7.2,73,36.9
	c4.1,12.5,4.3,25,0.2,37.5c-0.5,1.5-0.2,2.3,1.1,3.1c14,9,27.9,18.1,41.9,27.2c1.4,0.9,2.2,0.7,3.3-0.5c17.6-18.8,39.3-27.5,65-26.4
	c2.1,0.1,3-0.2,3.6-2.5c4.6-18.1,9.3-36.2,14.1-54.3c0.5-1.9,0.1-2.9-1.6-4.1c-16.2-10.9-23.6-26.3-21.3-45.6
	c2.2-18.7,12.8-31.8,30.5-38.7c24.9-9.6,53.8,5.1,60.9,30.8c7,25-5.7,49.9-29.9,58.3c-4,1.4-8.3,1.9-12.4,2.4
	c-1.9,0.3-2.7,0.9-3.1,2.7c-4.1,16.5-8.3,32.9-12.5,49.3c-0.3,1.3-0.6,2.6-0.9,3.9c-1,3.9-0.9,3.9,2.8,5.8
	c22.4,11.6,36.9,29.5,43.1,54c0.5,1.9,1.4,2.1,3,2c13.2-0.9,26.4-1.8,39.6-2.7c6.6-0.4,13.1-0.9,19.7-1.2c2.2-0.1,3.2-0.8,3.6-3.1
	c3.1-16.7,18.1-31.7,34.7-35.6c24.6-5.9,50.4,8.8,56.6,34.8c6.3,26.4-10.3,51.3-34.9,57.1c-22.1,5.2-44.7-6.2-53.8-27.4
	c-0.7-1.7-1.5-2.2-3.3-2.1c-20.2,1.5-40.3,2.9-60.5,4.3c-1.9,0.1-2.7,0.7-3,2.7c-3.3,25.4-15.7,45.2-37.1,59.3
	c-2.1,1.4-2.5,2.4-1.6,4.7c6.8,16.8,13.4,33.6,20.1,50.5c0.6,1.5,1.3,2.3,3.1,2C341.4,380.6,343.5,380.6,344.7,380.5z M274.5,197.6
	c-31.3,0-56.7,25.8-56.6,57.4c0,31.5,25.6,57.3,56.8,57.3c31.2,0,56.6-25.6,56.6-57.1C331.4,223.5,305.8,197.5,274.5,197.6z
	 M113.1,186.5c19.1-0.1,34.2-15.5,34.2-34.9c0-18.7-15.7-34.4-34.4-34.4c-19,0-34.2,15.6-34.1,35C78.9,171.2,94.3,186.5,113.1,186.5
	z M380.6,439.3c0-19.1-15.2-34.6-34.2-34.6c-19,0-34.3,15.3-34.3,34.5c0,19,15.5,34.7,34.2,34.7
	C365.3,473.9,380.6,458.5,380.6,439.3z M487.5,241.1c0-12.9-10.1-23.2-22.8-23.2c-12.6,0.1-22.8,10.5-22.8,23.3
	c0,12.7,10.2,23,22.7,23C477.3,264.3,487.5,254,487.5,241.1z M343.7,72.7c0-12.8-10.1-23-22.6-23c-12.7,0-22.9,10.2-22.9,23.1
	c0,12.8,10.2,23.2,22.8,23.2C333.6,95.9,343.7,85.6,343.7,72.7z M129.7,351c-12.7,0-22.8,10.3-22.7,23.2c0,12.7,10.2,23,22.7,23
	c12.6,0,22.8-10.3,22.9-23.1C152.6,361.3,142.4,351,129.7,351z"/>
<rect x="604.8" y="-138.4" class="st1" width="234.4" height="234.4"/>
</svg>
