<?xml version="1.0" encoding="utf-8"?>
<!-- Generator: Adobe Illustrator 24.0.2, SVG Export Plug-In . SVG Version: 6.00 Build 0)  -->
<svg version="1.1" id="Capa_1" xmlns="http://www.w3.org/2000/svg" xmlns:xlink="http://www.w3.org/1999/xlink" x="0px" y="0px"
	 viewBox="0 0 551.9 519.4" style="enable-background:new 0 0 551.9 519.4;" xml:space="preserve">
<style type="text/css">
	.st0{fill:#1C1E3F;}
	.st1{fill:#74C7DA;}
</style>
<path class="st0" d="M157.5,489.9c-35.4,0-70.8,0-106.1,0c-5.6,0-11.3-0.5-16.9-1c-6.2-0.6-9.7-6.3-7.7-12.3
	c0.6-1.9,1.6-3.7,2.5-5.4c29.7-52.9,59.4-105.7,89.1-158.6c0.8-1.4,1.3-3.1,1.3-4.7c0.1-21.5,0-42.9,0.1-64.4c0-2.4-0.7-3-3.1-3.1
	c-3.5-0.1-7.2-0.3-10.6-1.3c-5-1.4-7.5-5.6-6.8-10.5c0.7-5.2,4-8.5,9.3-8.7c17.5-0.5,34.9-0.9,52.4-1c14.1,0,28.1,0.6,42.2,0.9
	c3.5,0.1,6.2,1.4,8.2,4.3c4.1,5.9,1,13.9-6.1,15.5c-3.2,0.7-6.6,0.8-9.9,0.9c-2,0-2.5,0.6-2.5,2.6c0.1,22.1,0,44.1,0.1,66.2
	c0,1.3,0.5,2.8,1.2,3.9C220,359.1,245.8,405,271.5,451c4.6,8.3,9.1,16.6,13.6,25c2.6,4.9-0.6,12.1-6.2,13.1
	c-4.2,0.7-8.4,0.9-12.7,0.9C230.1,489.9,193.8,489.9,157.5,489.9L157.5,489.9z M257,468.3c-0.7-1.4-1.2-2.4-1.7-3.4
	c-10.5-18.9-21-37.8-31.5-56.8c-0.8-1.4-1.8-1.7-3.2-1.7c-42.9,0-85.8,0-128.6,0c-1.8,0-2.8,0.6-3.7,2.2
	c-10.7,19.1-21.5,38.1-32.2,57.2c-0.4,0.7-0.7,1.4-1.3,2.5C122.4,468.3,189.5,468.3,257,468.3z M210.3,385.4
	c-0.8-1.7-1.4-2.9-2.1-4.1c-11.7-21.1-23.5-42.2-35.1-63.3c-0.6-1.1-1-2.5-1.1-3.7c-0.2-23.5-0.4-47.1-0.6-70.6c0-1,0-1.9,0-3.1
	c-1.3,0-2.2,0-3.1,0c-8.3,0-16.6,0.1-25-0.1c-2.7-0.1-3.1,0.8-3.1,3.2c0.1,23.3,0.1,46.6,0,69.9c0,1.7-0.5,3.6-1.4,5.1
	C127,340,115,361.2,103.1,382.5c-0.5,0.8-0.9,1.7-1.5,2.9C137.9,385.4,173.9,385.4,210.3,385.4z"/>
<path class="st0" d="M302.3,190.7c-0.8,1.4-1.5,2.6-2.2,3.8c-1.8,3.1-3.5,6.2-5.3,9.3c-2.8,5-7.5,5.1-12,4.3
	c-3.3-0.6-6.4-4.6-6.7-8.8c-0.1-1.4,0.4-3,1-4.3c6.9-14.4,13.6-28.9,20.8-43.1c10.6-20.9,21.5-41.7,32.3-62.5
	c2.6-5.1,7.7-6.5,12.7-4c4.8,2.4,7,8,4.9,12.8c-1.3,3.1-2.8,6.2-4.3,9.5c1.5,0.7,2.9,1.4,4.3,2.1c50.7,24.6,101.4,49.1,151.9,73.9
	c27.5,13.5,34.3,47.4,14.5,70.9c-12.8,15.3-29.4,19.2-48,14.3c-7.4-2-14.4-6.1-21.4-9.5c-45.5-21.9-91-43.8-136.5-65.8
	C306.5,192.7,304.6,191.8,302.3,190.7z M435.8,175.6c-1.6-0.8-2.7-1.4-3.8-1.9c-31.6-15.3-63.1-30.6-94.7-45.9c-2-1-2.9-0.6-3.9,1.2
	c-6.7,13.3-13.4,26.5-20.2,39.8c-1.1,2.1-0.6,3.1,1.5,4.2c17,8.3,34,16.7,51,25c0.9,0.4,2.3,0.5,3.3,0.2
	c21.3-7.1,42.5-14.2,63.8-21.4C433.6,176.5,434.4,176.2,435.8,175.6z M395.7,212c1.1,0.7,1.5,1.1,2,1.3
	c25.4,12.1,50.7,24.3,76.1,36.4c3.2,1.5,6.8,1.8,10.3,0.8c11.5-3.5,23.7-12.9,20.2-30.6c-1.5-7.5-4.7-13.7-12.2-17.1
	c-8.9-4.1-17.7-8.5-26.5-12.8c-1.9-0.9-3.7-1-5.7-0.3c-14.1,4.9-28.2,9.6-42.3,14.4C410.4,206.5,403.4,209.2,395.7,212z"/>
<path class="st0" d="M214,146.2c-1.1-16.1,16.6-31.2,31.2-30.7c15.7,0.5,30.8,15.6,30.6,31.2c-0.1,15.7-15.8,30.9-31.5,31
	C230.2,177.8,212.4,161.7,214,146.2z M255,146.8c0-6.9-3.7-10.7-10.3-10.7c-6.4,0-10.7,4.4-10.6,11c0.1,5.6,4.4,9.6,10.6,9.5
	C251.4,156.6,255,153.1,255,146.8z"/>
<path class="st0" d="M266.4,94c-18-0.5-32.4-14.9-31.8-32c0.6-16.8,18.2-30.3,30.4-30c17.5,0.4,32.1,15.6,31.5,32.6
	C295.9,79.4,280.6,94.4,266.4,94z M266,53.3c-3.1,0-6.5-0.1-8.6,2.8c-2.9,4-2.5,8.6-1.2,12.9c1.1,3.4,4.6,4.1,7.7,4.7
	c6,1,11.8-3.1,11.9-8.8C276,58.3,274.5,52.4,266,53.3z"/>
<path class="st0" d="M202.6,83.3c0.5,18.6-17.3,32.4-31.6,31.7c-15.9-0.7-30.5-15.9-30.2-31.6c0.3-13.7,13.3-31.2,32.8-30.2
	C188.1,54,203,69.1,202.6,83.3z M172.1,73.7c-7.6,0.1-10.5,3-10.4,10.5c0.1,7.3,2.9,10,10.4,9.8c7.2-0.1,10.1-3.3,10-10.9
	C182.1,77.5,178,73.6,172.1,73.7z"/>
<path class="st0" d="M120.4,167.3c0-15.8,14.4-30.8,29.5-31c18.2-0.3,33.4,17.6,31.7,31c2,13.9-15.5,31.1-30.6,31.1
	C136.4,198.3,118.5,181.7,120.4,167.3z M161.3,166.7c0-6.3-4-10-10.8-10c-5.9,0-10.3,4.3-9.9,10.1c0.5,8.2,2.9,10.6,10.5,10.6
	C158.5,177.5,160.6,175.2,161.3,166.7z"/>
<rect x="619.9" y="153.7" class="st1" width="234.4" height="234.4"/>
<rect x="606.8" y="-124.2" class="st0" width="234.4" height="234.4"/>
</svg>
