<?xml version="1.0" encoding="utf-8"?>
<!-- Generator: Adobe Illustrator 24.0.2, SVG Export Plug-In . SVG Version: 6.00 Build 0)  -->
<svg version="1.1" id="Capa_1" xmlns="http://www.w3.org/2000/svg" xmlns:xlink="http://www.w3.org/1999/xlink" x="0px" y="0px"
	 viewBox="0 0 399 42" style="enable-background:new 0 0 399 42;" xml:space="preserve">
<style type="text/css">
	.st0{fill:#61D5E6;}
	.st1{fill:none;stroke:#1C1E3F;stroke-width:0.5;stroke-miterlimit:10;}
	.st2{fill:#7D60F5;}
	.st3{fill:#FFFFFF;}
</style>
<g id="Group">
	<g>
		<g id="Vector_7_">
			<rect x="6.4" y="27.6" class="st0" width="12.9" height="12.9"/>
			<rect x="6.4" y="27.6" class="st1" width="12.9" height="12.9"/>
		</g>
		<g id="Vector_2_7_">
			<path class="st2" d="M69,2H57.8H54h-6.4c-1.5,0-2.7,1.2-2.7,2.7V11c0,2-1.7,3.7-3.7,3.7h-4.9H20.8c-0.7,0-1.2,0.5-1.2,1.2v11.7
				h12.9v12.9h12.9V24v-5.4c0-2,1.7-3.7,3.7-3.7h9v13.1v3.2v9.7H71v-9.7v-3.2V15v-3.4V3.9C70.5,2.8,69.8,2,69,2z"/>
			<path class="st1" d="M69,2H57.8H54h-6.4c-1.5,0-2.7,1.2-2.7,2.7V11c0,2-1.7,3.7-3.7,3.7h-4.9H20.8c-0.7,0-1.2,0.5-1.2,1.2v11.7
				h12.9v12.9h12.9V24v-5.4c0-2,1.7-3.7,3.7-3.7h9v13.1v3.2v9.7H71v-9.7v-3.2V15v-3.4V3.9C70.5,2.8,69.8,2,69,2z"/>
		</g>
		<g id="Group_2_6_">
			<g id="Vector_3_7_">
				<polygon class="st3" points="125.4,2 125.4,40.5 119.1,40.5 119.1,17.4 118.3,17.4 108.3,37.6 100.7,37.6 90.7,17.4 89.6,17.4 
					89.6,40.5 83.4,40.5 83.4,2 89.6,2 104,31.1 105.1,31.1 119.5,2 				"/>
				<polygon class="st1" points="125.4,2 125.4,40.5 119.1,40.5 119.1,17.4 118.3,17.4 108.3,37.6 100.7,37.6 90.7,17.4 89.6,17.4 
					89.6,40.5 83.4,40.5 83.4,2 89.6,2 104,31.1 105.1,31.1 119.5,2 				"/>
			</g>
			<g id="Vector_4_7_">
				<path class="st3" d="M138.8,0.8v5.8h-5.9V0.8H138.8z M138.8,12v28.6h-5.9V12H138.8z"/>
				<path class="st1" d="M138.8,0.8v5.8h-5.9V0.8H138.8z M138.8,12v28.6h-5.9V12H138.8z"/>
			</g>
			<g id="Vector_5_7_">
				<path class="st3" d="M156.9,12c7.6,0,11.9,4.9,11.9,10.8h-6.3c-0.2-3.1-1.2-4.9-5.8-4.9c-5.3,0-6.9,1.7-6.9,8.1s1.7,8.1,6.9,8.1
					c4.2,0,5.4-2,5.8-4.9h6.3c0,6.3-4.4,10.8-11.9,10.8c-8.5,0-12.9-5.9-12.9-14.2S148.5,12,156.9,12z"/>
				<path class="st1" d="M156.9,12c7.6,0,11.9,4.9,11.9,10.8h-6.3c-0.2-3.1-1.2-4.9-5.8-4.9c-5.3,0-6.9,1.7-6.9,8.1s1.7,8.1,6.9,8.1
					c4.2,0,5.4-2,5.8-4.9h6.3c0,6.3-4.4,10.8-11.9,10.8c-8.5,0-12.9-5.9-12.9-14.2S148.5,12,156.9,12z"/>
			</g>
			<g id="Vector_6_7_">
				<polygon class="st3" points="191.3,17.9 180.5,17.9 180.5,40.3 174.2,40.3 174.2,12 191.2,12 191.2,17.9 				"/>
				<polygon class="st1" points="191.3,17.9 180.5,17.9 180.5,40.3 174.2,40.3 174.2,12 191.2,12 191.2,17.9 				"/>
			</g>
			<g id="Vector_7_7_">
				<path class="st3" d="M193.5,26.2c0-8.1,4.9-14.2,13.7-14.2c8.6,0,13.7,5.9,13.7,14.2s-4.9,14.2-13.7,14.2
					C198.3,40.3,193.5,34.4,193.5,26.2z M214.6,26.2c0-6.4-2-8.1-7.5-8.1c-5.8,0-7.5,1.7-7.5,8.1s2,8.1,7.5,8.1
					C212.7,34.4,214.6,32.7,214.6,26.2z"/>
				<path class="st1" d="M193.5,26.2c0-8.1,4.9-14.2,13.7-14.2c8.6,0,13.7,5.9,13.7,14.2s-4.9,14.2-13.7,14.2
					C198.3,40.3,193.5,34.4,193.5,26.2z M214.6,26.2c0-6.4-2-8.1-7.5-8.1c-5.8,0-7.5,1.7-7.5,8.1s2,8.1,7.5,8.1
					C212.7,34.4,214.6,32.7,214.6,26.2z"/>
			</g>
			<g id="Vector_8_7_">
				<path class="st3" d="M250.8,0.8v39.5h-6.3v-3.2c-1.7,2-4.4,3.2-8.5,3.2c-9.2,0-12.4-5.9-12.4-14.2c0-8.1,3.2-14.2,12.4-14.2
					c3.7,0,6.8,1.5,8.5,3.6v-2.2V1h6.3V0.8z M244.7,26.2c0-6.4-2-8.1-7.5-8.1c-5.4,0-7.5,1.5-7.5,8.1c0,6.4,2,8.1,7.5,8.1
					C242.7,34.4,244.7,32.7,244.7,26.2z"/>
				<path class="st1" d="M250.8,0.8v39.5h-6.3v-3.2c-1.7,2-4.4,3.2-8.5,3.2c-9.2,0-12.4-5.9-12.4-14.2c0-8.1,3.2-14.2,12.4-14.2
					c3.7,0,6.8,1.5,8.5,3.6v-2.2V1h6.3V0.8z M244.7,26.2c0-6.4-2-8.1-7.5-8.1c-5.4,0-7.5,1.5-7.5,8.1c0,6.4,2,8.1,7.5,8.1
					C242.7,34.4,244.7,32.7,244.7,26.2z"/>
			</g>
			<g id="Vector_9_7_">
				<path class="st3" d="M282.2,34.4v6.3h-9.5v-2.7c-1.7,1.7-3.7,2.7-8,2.7c-6.9,0-10.2-4.4-10.2-9.7s3.2-9.7,10.2-9.7
					c3.9,0,6.3,1.2,8,2.7v-5.9h-14.6V12H279v22.4H282.2z M272.7,30.8c0-3.1-2-3.7-5.9-3.7s-5.9,0.7-5.9,3.7s2,3.7,5.9,3.7
					S272.7,33.5,272.7,30.8z"/>
				<path class="st1" d="M282.2,34.4v6.3h-9.5v-2.7c-1.7,1.7-3.7,2.7-8,2.7c-6.9,0-10.2-4.4-10.2-9.7s3.2-9.7,10.2-9.7
					c3.9,0,6.3,1.2,8,2.7v-5.9h-14.6V12H279v22.4H282.2z M272.7,30.8c0-3.1-2-3.7-5.9-3.7s-5.9,0.7-5.9,3.7s2,3.7,5.9,3.7
					S272.7,33.5,272.7,30.8z"/>
			</g>
			<g id="Vector_10_7_">
				<polygon class="st3" points="295.4,17.9 295.4,34.4 302.9,34.4 302.9,40.6 289.1,40.6 289.1,18.3 284.7,18.3 284.7,12 289.1,12 
					289.1,0.8 295.4,0.8 295.4,12 302.9,12 302.9,18.3 295.4,18.3 295.4,17.9 				"/>
				<polygon class="st1" points="295.4,17.9 295.4,34.4 302.9,34.4 302.9,40.6 289.1,40.6 289.1,18.3 284.7,18.3 284.7,12 289.1,12 
					289.1,0.8 295.4,0.8 295.4,12 302.9,12 302.9,18.3 295.4,18.3 295.4,17.9 				"/>
			</g>
			<g id="Vector_11_7_">
				<path class="st3" d="M335.1,34.4v6.3h-9.5v-2.7c-1.7,1.7-3.7,2.7-8,2.7c-6.9,0-10.2-4.4-10.2-9.7s3.2-9.7,10.2-9.7
					c3.9,0,6.3,1.2,8,2.7v-5.9H311V12h20.8v22.4H335.1z M325.4,30.8c0-3.1-2-3.7-5.9-3.7s-5.9,0.7-5.9,3.7s2,3.7,5.9,3.7
					S325.4,33.5,325.4,30.8z"/>
				<path class="st1" d="M335.1,34.4v6.3h-9.5v-2.7c-1.7,1.7-3.7,2.7-8,2.7c-6.9,0-10.2-4.4-10.2-9.7s3.2-9.7,10.2-9.7
					c3.9,0,6.3,1.2,8,2.7v-5.9H311V12h20.8v22.4H335.1z M325.4,30.8c0-3.1-2-3.7-5.9-3.7s-5.9,0.7-5.9,3.7s2,3.7,5.9,3.7
					S325.4,33.5,325.4,30.8z"/>
			</g>
			<g id="Vector_12_7_">
				<rect x="341.3" y="34.4" class="st3" width="6.3" height="6.3"/>
				<rect x="341.3" y="34.4" class="st1" width="6.3" height="6.3"/>
			</g>
			<g id="Vector_13_7_">
				<path class="st3" d="M380.8,34.4v6.3h-9.5v-2.7c-1.7,1.7-3.7,2.7-8,2.7c-6.9,0-10.2-4.4-10.2-9.7s3.2-9.7,10.2-9.7
					c3.9,0,6.3,1.2,8,2.7v-5.9h-14.6V12h20.8v22.4H380.8z M371.3,30.8c0-3.1-2-3.7-5.9-3.7s-5.9,0.7-5.9,3.7s2,3.7,5.9,3.7
					C369.5,34.5,371.3,33.5,371.3,30.8z"/>
				<path class="st1" d="M380.8,34.4v6.3h-9.5v-2.7c-1.7,1.7-3.7,2.7-8,2.7c-6.9,0-10.2-4.4-10.2-9.7s3.2-9.7,10.2-9.7
					c3.9,0,6.3,1.2,8,2.7v-5.9h-14.6V12h20.8v22.4H380.8z M371.3,30.8c0-3.1-2-3.7-5.9-3.7s-5.9,0.7-5.9,3.7s2,3.7,5.9,3.7
					C369.5,34.5,371.3,33.5,371.3,30.8z"/>
			</g>
			<g id="Vector_14_7_">
				<path class="st3" d="M392.2,0.8v5.8h-6.1V0.8H392.2z M392.2,12v28.6h-6.1V12H392.2z"/>
				<path class="st1" d="M392.2,0.8v5.8h-6.1V0.8H392.2z M392.2,12v28.6h-6.1V12H392.2z"/>
			</g>
		</g>
	</g>
</g>
</svg>
